<svg width="44" height="44" viewBox="0 0 44 44" fill="none" xmlns="http://www.w3.org/2000/svg">
<rect opacity="0.4" x="0.5" y="0.5" width="43" height="43" rx="9.5" fill="white" fill-opacity="0.08" stroke="url(#paint0_linear_11_225)"/>
<path d="M28.1666 24.3797C27.4949 24.2352 26.9635 24.5471 26.493 24.8194C26.0111 25.1001 25.0949 25.8434 24.5697 25.6531C21.8808 24.546 19.3519 22.1925 18.2571 19.4929C18.0642 18.9565 18.804 18.0344 19.0826 17.5469C19.3529 17.0749 19.6583 16.5385 19.519 15.8618C19.3932 15.2537 17.765 13.1819 17.1892 12.6153C16.8095 12.2411 16.4205 12.0353 16.0212 12.002C14.52 11.9376 12.8433 13.9407 12.5492 14.42C11.8125 15.4418 11.8166 16.8015 12.5616 18.4502C14.3569 22.8786 21.1472 29.5618 25.5922 31.4246C26.4125 31.8082 27.1626 32.0005 27.8364 32.0005C28.4957 32.0005 29.0828 31.8165 29.5874 31.4516C29.9681 31.2323 32.0534 29.4724 31.9987 27.9307C31.9657 27.5378 31.7604 27.1448 31.391 26.7644C30.8286 26.1833 28.7702 24.5065 28.1666 24.3797Z" fill="white"/>
<defs>
<linearGradient id="paint0_linear_11_225" x1="22" y1="0" x2="22" y2="44" gradientUnits="userSpaceOnUse">
<stop stop-color="white"/>
<stop offset="1" stop-color="white" stop-opacity="0"/>
</linearGradient>
</defs>
</svg>
