<svg height="auto" viewBox="0 0 2000 1000" xmlns="http://www.w3.org/2000/svg"><path d="M0 644.572c4.32-43.903 15.36-199.026 24-243.904 8.64-44.878 15.36-18.12 24-5.417 8.64 12.701 15.36 110.847 24 75.982 8.64-34.866 15.36-252.591 24-269.68 8.64-17.09 15.36 123.364 24 174.74 8.64 51.376 15.36 60.322 24 110.682s15.36 120.558 24 169.097c8.64 48.54 15.36 99.854 24 100.565 8.64.71 15.36-77.056 24-96.617 8.64-19.56 15.36-1.924 24-12.055 8.64-10.13 15.36-12.163 24-44.227 8.64-32.064 15.36-130.013 24-133.907 8.64-3.894 15.36 83.506 24 112.273 8.64 28.767 15.36 133.189 24 47.543 8.64-85.645 15.36-459.34 24-523.35 8.64-64.01 15.36 77.458 24 167.74 8.64 90.281 15.36 326.306 24 333.824 8.64 7.519 15.36-313.099 24-292.057 8.64 21.042 15.36 365.986 24 408.956 8.64 42.97 15.36-119.828 24-170.23 8.64-50.403 15.36-34.64 24-109.783 8.64-75.144 15.36-318.037 24-307.681 8.64 10.355 15.36 262.833 24 365.21 8.64 102.38 15.36 178.04 24 203.558s15.36 43.225 24-61.792 15.36-498.01 24-521.636c8.64-23.625 15.36 293.996 24 390.385 8.64 96.388 15.36 107.641 24 145.108 8.64 37.466 15.36 127.366 24 63.039 8.64-64.328 15.36-403.285 24-420.413 8.64-17.128 15.36 241.852 24 325.256 8.64 83.404 15.36 136.944 24 138.1 8.64 1.155 15.36-136.058 24-131.679 8.64 4.38 15.36 173.578 24 156.01 8.64-17.57 15.36-192.995 24-253.614 8.64-60.62 15.36-121.15 24-83.163 8.64 37.986 15.36 292 24 294.199 8.64 2.198 15.36-278.082 24-281.985 8.64-3.904 15.36 321.489 24 260.298 8.64-61.192 15.36-551.159 24-600.249 8.64-49.09 15.36 261.396 24 327.527 8.64 66.13 15.36 46.64 24 39.865 8.64-6.775 15.36-56.706 24-77.505 8.64-20.8 15.36-35.643 24-38.05 8.64-2.406 15.36-32.593 24 24.681s15.36 239.297 24 293.51c8.64 54.212 15.36 64.95 24 7.67s15.36-275.693 24-325.894c8.64-50.201 15.36 93.137 24 46.998 8.64-46.138 15.36-262.173 24-303.322s15.36 50.904 24 74.716c8.64 23.812 15.36.423 24 57.572 8.64 57.15 15.36 192.368 24 259.924 8.64 67.556 15.36 143.903 24 115.387 8.64-28.515 15.36-237.016 24-273.807 8.64-36.79 15.36 10.263 24 69.413s15.36 304.52 24 259.2c8.64-45.32 15.36-453.685 24-510.978 8.64-57.292 15.36 183.035 24 192.686 8.64 9.65 15.36-143.436 24-139.07 8.64 4.364 15.36 173.098 24 163.32 8.64-9.777 15.36-223.46 24-217.64 8.64 5.819 15.36 187.804 24 249.969 8.64 62.164 15.36 111.5 24 95.39 8.64-16.111 15.36-225.92 24-184.896s15.36 408.71 24 412.807c8.64 4.098 15.36-382.258 24-390.044 8.64-7.786 15.36 352.838 24 346.788 8.64-6.05 15.36-290.723 24-380.401 8.64-89.679 15.36-113.475 24-117.81 8.64-4.337 15.36-1.65 24 93.722 8.64 95.371 15.36 406.62 24 436.12 8.64 29.499 15.36-170.597 24-272.232 8.64-101.635 15.36-265.526 24-292.407 8.64-26.881 15.36 99.28 24 143.068 8.64 43.788 15.36 33.785 24 100.2 8.64 66.413 15.36 203.928 24 268.766 8.64 64.837 15.36 178.716 24 91.443 8.64-87.273 15.36-513.671 24-576.293 8.64-62.622 15.36 151.017 24 228.393s15.36 218.262 24 201.475c8.64-16.788 15.36-225.513 24-294.739 8.64-69.226 19.68-73.676 24-89.849l8 760.629H0Z" fill="#f745f71a"/><path d="M0 644.572c4.32-43.903 15.36-199.026 24-243.904 8.64-44.878 15.36-18.12 24-5.417 8.64 12.701 15.36 110.847 24 75.982 8.64-34.866 15.36-252.591 24-269.68 8.64-17.09 15.36 123.364 24 174.74 8.64 51.376 15.36 60.322 24 110.682s15.36 120.558 24 169.097c8.64 48.54 15.36 99.854 24 100.565 8.64.71 15.36-77.056 24-96.617 8.64-19.56 15.36-1.924 24-12.055 8.64-10.13 15.36-12.163 24-44.227 8.64-32.064 15.36-130.013 24-133.907 8.64-3.894 15.36 83.506 24 112.273 8.64 28.767 15.36 133.189 24 47.543 8.64-85.645 15.36-459.34 24-523.35 8.64-64.01 15.36 77.458 24 167.74 8.64 90.281 15.36 326.306 24 333.824 8.64 7.519 15.36-313.099 24-292.057 8.64 21.042 15.36 365.986 24 408.956 8.64 42.97 15.36-119.828 24-170.23 8.64-50.403 15.36-34.64 24-109.783 8.64-75.144 15.36-318.037 24-307.681 8.64 10.355 15.36 262.833 24 365.21 8.64 102.38 15.36 178.04 24 203.558s15.36 43.225 24-61.792 15.36-498.01 24-521.636c8.64-23.625 15.36 293.996 24 390.385 8.64 96.388 15.36 107.641 24 145.108 8.64 37.466 15.36 127.366 24 63.039 8.64-64.328 15.36-403.285 24-420.413 8.64-17.128 15.36 241.852 24 325.256 8.64 83.404 15.36 136.944 24 138.1 8.64 1.155 15.36-136.058 24-131.679 8.64 4.38 15.36 173.578 24 156.01 8.64-17.57 15.36-192.995 24-253.614 8.64-60.62 15.36-121.15 24-83.163 8.64 37.986 15.36 292 24 294.199 8.64 2.198 15.36-278.082 24-281.985 8.64-3.904 15.36 321.489 24 260.298 8.64-61.192 15.36-551.159 24-600.249 8.64-49.09 15.36 261.396 24 327.527 8.64 66.13 15.36 46.64 24 39.865 8.64-6.775 15.36-56.706 24-77.505 8.64-20.8 15.36-35.643 24-38.05 8.64-2.406 15.36-32.593 24 24.681s15.36 239.297 24 293.51c8.64 54.212 15.36 64.95 24 7.67s15.36-275.693 24-325.894c8.64-50.201 15.36 93.137 24 46.998 8.64-46.138 15.36-262.173 24-303.322s15.36 50.904 24 74.716c8.64 23.812 15.36.423 24 57.572 8.64 57.15 15.36 192.368 24 259.924 8.64 67.556 15.36 143.903 24 115.387 8.64-28.515 15.36-237.016 24-273.807 8.64-36.79 15.36 10.263 24 69.413s15.36 304.52 24 259.2c8.64-45.32 15.36-453.685 24-510.978 8.64-57.292 15.36 183.035 24 192.686 8.64 9.65 15.36-143.436 24-139.07 8.64 4.364 15.36 173.098 24 163.32 8.64-9.777 15.36-223.46 24-217.64 8.64 5.819 15.36 187.804 24 249.969 8.64 62.164 15.36 111.5 24 95.39 8.64-16.111 15.36-225.92 24-184.896s15.36 408.71 24 412.807c8.64 4.098 15.36-382.258 24-390.044 8.64-7.786 15.36 352.838 24 346.788 8.64-6.05 15.36-290.723 24-380.401 8.64-89.679 15.36-113.475 24-117.81 8.64-4.337 15.36-1.65 24 93.722 8.64 95.371 15.36 406.62 24 436.12 8.64 29.499 15.36-170.597 24-272.232 8.64-101.635 15.36-265.526 24-292.407 8.64-26.881 15.36 99.28 24 143.068 8.64 43.788 15.36 33.785 24 100.2 8.64 66.413 15.36 203.928 24 268.766 8.64 64.837 15.36 178.716 24 91.443 8.64-87.273 15.36-513.671 24-576.293 8.64-62.622 15.36 151.017 24 228.393s15.36 218.262 24 201.475c8.64-16.788 15.36-225.513 24-294.739 8.64-69.226 19.68-73.676 24-89.849" fill="none" stroke="#f745f7" stroke-width="6"/><g fill="#f745f7"><circle cy="644.572" r="12"/><circle cx="24" cy="400.668" r="12"/><circle cx="48" cy="395.251" r="12"/><circle cx="72" cy="471.233" r="12"/><circle cx="96" cy="201.553" r="12"/><circle cx="120" cy="376.293" r="12"/><circle cx="144" cy="486.975" r="12"/><circle cx="168" cy="656.072" r="12"/><circle cx="192" cy="756.637" r="12"/><circle cx="216" cy="660.02" r="12"/><circle cx="240" cy="647.965" r="12"/><circle cx="264" cy="603.738" r="12"/><circle cx="288" cy="469.831" r="12"/><circle cx="312" cy="582.104" r="12"/><circle cx="336" cy="629.647" r="12"/><circle cx="360" cy="106.297" r="12"/><circle cx="384" cy="274.037" r="12"/><circle cx="408" cy="607.861" r="12"/><circle cx="432" cy="315.804" r="12"/><circle cx="456" cy="724.76" r="12"/><circle cx="480" cy="554.529" r="12"/><circle cx="504" cy="444.747" r="12"/><circle cx="528" cy="137.066" r="12"/><circle cx="552" cy="502.277" r="12"/><circle cx="576" cy="705.834" r="12"/><circle cx="600" cy="644.042" r="12"/><circle cx="624" cy="122.406" r="12"/><circle cx="648" cy="512.791" r="12"/><circle cx="672" cy="657.899" r="12"/><circle cx="696" cy="720.938" r="12"/><circle cx="720" cy="300.525" r="12"/><circle cx="744" cy="625.781" r="12"/><circle cx="768" cy="763.881" r="12"/><circle cx="792" cy="632.202" r="12"/><circle cx="816" cy="788.211" r="12"/><circle cx="840" cy="534.598" r="12"/><circle cx="864" cy="451.435" r="12"/><circle cx="888" cy="745.634" r="12"/><circle cx="912" cy="463.649" r="12"/><circle cx="936" cy="723.947" r="12"/><circle cx="960" cy="123.698" r="12"/><circle cx="984" cy="451.225" r="12"/><circle cx="1008" cy="491.09" r="12"/><circle cx="1032" cy="413.585" r="12"/><circle cx="1056" cy="375.536" r="12"/><circle cx="1080" cy="400.216" r="12"/><circle cx="1104" cy="693.725" r="12"/><circle cx="1128" cy="701.395" r="12"/><circle cx="1152" cy="375.502" r="12"/><circle cx="1176" cy="422.5" r="12"/><circle cx="1200" cy="119.178" r="12"/><circle cx="1224" cy="193.894" r="12"/><circle cx="1248" cy="251.466" r="12"/><circle cx="1272" cy="511.39" r="12"/><circle cx="1296" cy="626.777" r="12"/><circle cx="1320" cy="352.97" r="12"/><circle cx="1344" cy="422.383" r="12"/><circle cx="1368" cy="681.582" r="12"/><circle cx="1392" cy="170.605" r="12"/><circle cx="1416" cy="363.291" r="12"/><circle cx="1440" cy="224.22" r="12"/><circle cx="1464" cy="387.541" r="12"/><circle cx="1488" cy="169.901" r="12"/><circle cx="1512" cy="419.87" r="12"/><circle cx="1536" cy="515.26" r="12"/><circle cx="1560" cy="330.364" r="12"/><circle cx="1584" cy="743.171" r="12"/><circle cx="1608" cy="353.127" r="12"/><circle cx="1632" cy="699.915" r="12"/><circle cx="1656" cy="319.514" r="12"/><circle cx="1680" cy="201.703" r="12"/><circle cx="1704" cy="295.426" r="12"/><circle cx="1728" cy="731.545" r="12"/><circle cx="1752" cy="459.314" r="12"/><circle cx="1776" cy="166.907" r="12"/><circle cx="1800" cy="309.975" r="12"/><circle cx="1824" cy="410.174" r="12"/><circle cx="1848" cy="678.941" r="12"/><circle cx="1872" cy="770.384" r="12"/><circle cx="1896" cy="194.091" r="12"/><circle cx="1920" cy="422.484" r="12"/><circle cx="1944" cy="623.959" r="12"/><circle cx="1968" cy="329.22" r="12"/><circle cx="1992" cy="239.371" r="12"/></g></svg>