<svg height="auto" viewBox="0 0 2000 1000" xmlns="http://www.w3.org/2000/svg"><path d="M0 5.963c4.32.219 15.36-.008 24 1.215s15.36 2.743 24 5.58 15.36 7.257 24 10.182c8.64 2.925 15.36 1.881 24 6.067s15.36 9.453 24 17.187c8.64 7.735 15.36 23.735 24 25.782 8.64 2.047 15.36-15.499 24-14.41 8.64 1.09 15.36 19.297 24 20.46 8.64 1.163 15.36-15.667 24-13.997s15.36 15.675 24 23.274c8.64 7.6 15.36 14.584 24 18.945 8.64 4.361 15.36 7.3 24 5.286 8.64-2.014 15.36-18.308 24-16.473 8.64 1.835 15.36 14.426 24 26.668 8.64 12.242 15.36 36.989 24 41.343 8.64 4.355 15.36-6.918 24-17.153 8.64-10.236 15.36-33.77 24-39.711 8.64-5.94 15.36-4.39 24 6.708 8.64 11.098 15.36 51.292 24 54.946 8.64 3.654 15.36-42.762 24-34.644 8.64 8.118 15.36 77.02 24 79.744 8.64 2.725 15.36-59.687 24-64.608 8.64-4.921 15.36 18.619 24 37.267 8.64 18.649 15.36 68.888 24 66.337 8.64-2.552 15.36-86.893 24-80.51 8.64 6.383 15.36 102.407 24 115.971 8.64 13.564 15.36-36.573 24-40.614 8.64-4.041 15.36 2.473 24 18.162s15.36 78.351 24 69c8.64-9.353 15.36-125.836 24-120.957 8.64 4.88 15.36 137.542 24 148.065 8.64 10.523 15.36-72.377 24-89.603s15.36-25.677 24-6.095c8.64 19.581 15.36 124.544 24 114.881 8.64-9.662 15.36-176.157 24-168.564 8.64 7.593 15.36 186.542 24 210.748 8.64 24.205 15.36-57.806 24-76.275 8.64-18.468 15.36-21.729 24-26.329 8.64-4.6 15.36-14.75 24 .774 8.64 15.524 15.36 93.067 24 85.47 8.64-7.596 15.36-132.396 24-127.672 8.64 4.724 15.36 117.255 24 153.919 8.64 36.663 15.36 80.058 24 49.766 8.64-30.292 15.36-207.426 24-218.057s15.36 115.328 24 158.995 15.36 75.078 24 83.598c8.64 8.52 15.36-44.766 24-36.264 8.64 8.501 15.36 83.37 24 83.494 8.64.124 15.36-39.443 24-82.805 8.64-43.363 15.36-132.71 24-158.097 8.64-25.386 15.36 9.197 24 17.06 8.64 7.864 15.36 16.834 24 26.627 8.64 9.792 15.36 7.744 24 27.777s15.36 53.631 24 83.517c8.64 29.887 15.36 55.774 24 82.518 8.64 26.745 15.36 75.748 24 66.064 8.64-9.683 15.36-106.905 24-119.86 8.64-12.956 15.36 44.01 24 47.886 8.64 3.877 15.36-36.049 24-26.35 8.64 9.7 15.36 84.449 24 80.235 8.64-4.214 15.36-112.035 24-103.644 8.64 8.392 15.36 118.213 24 150.262 8.64 32.049 15.36 41.736 24 27.79 8.64-13.948 15.36-116.11 24-105.275 8.64 10.835 15.36 182.054 24 165.47 8.64-16.583 15.36-222.8 24-257.602 8.64-34.801 15.36 44.6 24 64.26 8.64 19.662 15.36 10.767 24 44.969 8.64 34.201 15.36 115.896 24 145.04 8.64 29.145 15.36 14.138 24 16.874 8.64 2.735 15.36 37.69 24-1.678 8.64-39.368 15.36-194.542 24-217.032 8.64-22.49 15.36 84.41 24 92.09 8.64 7.679 15.36-71.969 24-49.428 8.64 22.542 15.36 157.72 24 174.658 8.64 16.938 15.36-94.004 24-80.555 8.64 13.45 15.36 134.848 24 155.277 8.64 20.428 15.36 13.74 24-41.784 8.64-55.525 15.36-287.62 24-266.686 8.64 20.933 15.36 305.613 24 382.981s15.36 87.526 24 46.841c8.64-40.684 15.36-236.156 24-272.866 8.64-36.71 19.68 56.516 24 68.922l8 262.683H0Z" fill="#f745f71a"/><path d="M0 5.963c4.32.219 15.36-.008 24 1.215s15.36 2.743 24 5.58 15.36 7.257 24 10.182c8.64 2.925 15.36 1.881 24 6.067s15.36 9.453 24 17.187c8.64 7.735 15.36 23.735 24 25.782 8.64 2.047 15.36-15.499 24-14.41 8.64 1.09 15.36 19.297 24 20.46 8.64 1.163 15.36-15.667 24-13.997s15.36 15.675 24 23.274c8.64 7.6 15.36 14.584 24 18.945 8.64 4.361 15.36 7.3 24 5.286 8.64-2.014 15.36-18.308 24-16.473 8.64 1.835 15.36 14.426 24 26.668 8.64 12.242 15.36 36.989 24 41.343 8.64 4.355 15.36-6.918 24-17.153 8.64-10.236 15.36-33.77 24-39.711 8.64-5.94 15.36-4.39 24 6.708 8.64 11.098 15.36 51.292 24 54.946 8.64 3.654 15.36-42.762 24-34.644 8.64 8.118 15.36 77.02 24 79.744 8.64 2.725 15.36-59.687 24-64.608 8.64-4.921 15.36 18.619 24 37.267 8.64 18.649 15.36 68.888 24 66.337 8.64-2.552 15.36-86.893 24-80.51 8.64 6.383 15.36 102.407 24 115.971 8.64 13.564 15.36-36.573 24-40.614 8.64-4.041 15.36 2.473 24 18.162s15.36 78.351 24 69c8.64-9.353 15.36-125.836 24-120.957 8.64 4.88 15.36 137.542 24 148.065 8.64 10.523 15.36-72.377 24-89.603s15.36-25.677 24-6.095c8.64 19.581 15.36 124.544 24 114.881 8.64-9.662 15.36-176.157 24-168.564 8.64 7.593 15.36 186.542 24 210.748 8.64 24.205 15.36-57.806 24-76.275 8.64-18.468 15.36-21.729 24-26.329 8.64-4.6 15.36-14.75 24 .774 8.64 15.524 15.36 93.067 24 85.47 8.64-7.596 15.36-132.396 24-127.672 8.64 4.724 15.36 117.255 24 153.919 8.64 36.663 15.36 80.058 24 49.766 8.64-30.292 15.36-207.426 24-218.057s15.36 115.328 24 158.995 15.36 75.078 24 83.598c8.64 8.52 15.36-44.766 24-36.264 8.64 8.501 15.36 83.37 24 83.494 8.64.124 15.36-39.443 24-82.805 8.64-43.363 15.36-132.71 24-158.097 8.64-25.386 15.36 9.197 24 17.06 8.64 7.864 15.36 16.834 24 26.627 8.64 9.792 15.36 7.744 24 27.777s15.36 53.631 24 83.517c8.64 29.887 15.36 55.774 24 82.518 8.64 26.745 15.36 75.748 24 66.064 8.64-9.683 15.36-106.905 24-119.86 8.64-12.956 15.36 44.01 24 47.886 8.64 3.877 15.36-36.049 24-26.35 8.64 9.7 15.36 84.449 24 80.235 8.64-4.214 15.36-112.035 24-103.644 8.64 8.392 15.36 118.213 24 150.262 8.64 32.049 15.36 41.736 24 27.79 8.64-13.948 15.36-116.11 24-105.275 8.64 10.835 15.36 182.054 24 165.47 8.64-16.583 15.36-222.8 24-257.602 8.64-34.801 15.36 44.6 24 64.26 8.64 19.662 15.36 10.767 24 44.969 8.64 34.201 15.36 115.896 24 145.04 8.64 29.145 15.36 14.138 24 16.874 8.64 2.735 15.36 37.69 24-1.678 8.64-39.368 15.36-194.542 24-217.032 8.64-22.49 15.36 84.41 24 92.09 8.64 7.679 15.36-71.969 24-49.428 8.64 22.542 15.36 157.72 24 174.658 8.64 16.938 15.36-94.004 24-80.555 8.64 13.45 15.36 134.848 24 155.277 8.64 20.428 15.36 13.74 24-41.784 8.64-55.525 15.36-287.62 24-266.686 8.64 20.933 15.36 305.613 24 382.981s15.36 87.526 24 46.841c8.64-40.684 15.36-236.156 24-272.866 8.64-36.71 19.68 56.516 24 68.922" fill="none" stroke="#f745f7" stroke-width="6"/><g fill="#f745f7"><circle cy="5.963" r="12"/><circle cx="24" cy="7.178" r="12"/><circle cx="48" cy="12.758" r="12"/><circle cx="72" cy="22.94" r="12"/><circle cx="96" cy="29.007" r="12"/><circle cx="120" cy="46.194" r="12"/><circle cx="144" cy="71.976" r="12"/><circle cx="168" cy="57.566" r="12"/><circle cx="192" cy="78.026" r="12"/><circle cx="216" cy="64.029" r="12"/><circle cx="240" cy="87.303" r="12"/><circle cx="264" cy="106.248" r="12"/><circle cx="288" cy="111.534" r="12"/><circle cx="312" cy="95.061" r="12"/><circle cx="336" cy="121.729" r="12"/><circle cx="360" cy="163.072" r="12"/><circle cx="384" cy="145.919" r="12"/><circle cx="408" cy="106.208" r="12"/><circle cx="432" cy="112.916" r="12"/><circle cx="456" cy="167.862" r="12"/><circle cx="480" cy="133.218" r="12"/><circle cx="504" cy="212.962" r="12"/><circle cx="528" cy="148.354" r="12"/><circle cx="552" cy="185.621" r="12"/><circle cx="576" cy="251.958" r="12"/><circle cx="600" cy="171.448" r="12"/><circle cx="624" cy="287.419" r="12"/><circle cx="648" cy="246.805" r="12"/><circle cx="672" cy="264.967" r="12"/><circle cx="696" cy="333.966" r="12"/><circle cx="720" cy="213.01" r="12"/><circle cx="744" cy="361.075" r="12"/><circle cx="768" cy="271.472" r="12"/><circle cx="792" cy="265.377" r="12"/><circle cx="816" cy="380.258" r="12"/><circle cx="840" cy="211.694" r="12"/><circle cx="864" cy="422.442" r="12"/><circle cx="888" cy="346.167" r="12"/><circle cx="912" cy="319.838" r="12"/><circle cx="936" cy="320.612" r="12"/><circle cx="960" cy="406.083" r="12"/><circle cx="984" cy="278.41" r="12"/><circle cx="1008" cy="432.329" r="12"/><circle cx="1032" cy="482.095" r="12"/><circle cx="1056" cy="264.038" r="12"/><circle cx="1080" cy="423.033" r="12"/><circle cx="1104" cy="506.631" r="12"/><circle cx="1128" cy="470.367" r="12"/><circle cx="1152" cy="553.861" r="12"/><circle cx="1176" cy="471.056" r="12"/><circle cx="1200" cy="312.959" r="12"/><circle cx="1224" cy="330.02" r="12"/><circle cx="1248" cy="356.646" r="12"/><circle cx="1272" cy="384.423" r="12"/><circle cx="1296" cy="467.94" r="12"/><circle cx="1320" cy="550.458" r="12"/><circle cx="1344" cy="616.522" r="12"/><circle cx="1368" cy="496.661" r="12"/><circle cx="1392" cy="544.548" r="12"/><circle cx="1416" cy="518.199" r="12"/><circle cx="1440" cy="598.433" r="12"/><circle cx="1464" cy="494.789" r="12"/><circle cx="1488" cy="645.051" r="12"/><circle cx="1512" cy="672.84" r="12"/><circle cx="1536" cy="567.566" r="12"/><circle cx="1560" cy="733.036" r="12"/><circle cx="1584" cy="475.434" r="12"/><circle cx="1608" cy="539.695" r="12"/><circle cx="1632" cy="584.663" r="12"/><circle cx="1656" cy="729.703" r="12"/><circle cx="1680" cy="746.577" r="12"/><circle cx="1704" cy="744.899" r="12"/><circle cx="1728" cy="527.867" r="12"/><circle cx="1752" cy="619.957" r="12"/><circle cx="1776" cy="570.529" r="12"/><circle cx="1800" cy="745.187" r="12"/><circle cx="1824" cy="664.632" r="12"/><circle cx="1848" cy="819.909" r="12"/><circle cx="1872" cy="778.125" r="12"/><circle cx="1896" cy="511.439" r="12"/><circle cx="1920" cy="894.42" r="12"/><circle cx="1944" cy="941.261" r="12"/><circle cx="1968" cy="668.395" r="12"/><circle cx="1992" cy="737.317" r="12"/></g></svg>