<svg height="auto" viewBox="0 0 2000 1000" xmlns="http://www.w3.org/2000/svg"><path d="M0 529.795c9.54-21.803 33.92-156.047 53-121.13s33.92 298.504 53 315.113c19.08 16.61 33.92-125.669 53-222.839s33.92-258.847 53-316.996c19.08-58.15 33.92.004 53-6.057s33.92-85.14 53-27.615c19.08 57.525 33.92 268.511 53 347.197 19.08 78.685 33.92 137.19 53 89.944 19.08-47.246 33.92-343.48 53-352.422 19.08-8.942 33.92 247.74 53 302.742 19.08 55.003 33.92-.834 53 2.828 19.08 3.663 33.92 23.673 53 17.52 19.08-6.154 33.92 12.333 53-51.707 19.08-64.039 33.92-263.4 53-304.068 19.08-40.667 33.92 1.65 53 78.138s33.92 325.818 53 346.793c19.08 20.974 33.92-154.792 53-230.27 19.08-75.48 33.92-206.231 53-189.056 19.08 17.174 33.92 233.968 53 284.47 19.08 50.501 33.92 66.387 53-3.904 19.08-70.292 33.92-419.117 53-386.606 19.08 32.512 33.92 498.873 53 567.227 19.08 68.354 33.92-153.646 53-187.482 19.08-33.835 33.92 3.062 53-.493 19.08-3.555 33.92-55.863 53-19.257 19.08 36.606 33.92 213.227 53 222.624 19.08 9.396 33.92-180.803 53-170.421 19.08 10.381 33.92 289.246 53 228.096 19.08-61.15 33.92-568.518 53-567.82 19.08.697 33.92 531.44 53 571.693 19.08 40.254 33.92-309.87 53-348.061 19.08-38.192 33.92 175.63 53 135.884 19.08-39.746 33.92-367.601 53-356.697 19.08 10.905 33.92 331.631 53 417.279 19.08 85.647 33.92 95.144 53 58.541 19.08-36.603 33.92-230.599 53-261.89 19.08-31.292 33.92 78.679 53 88.048s43.46-29.519 53-35.998L2000 1000H0Z" fill="#4569f71a"/><path d="M0 529.795c9.54-21.803 33.92-156.047 53-121.13s33.92 298.504 53 315.113c19.08 16.61 33.92-125.669 53-222.839s33.92-258.847 53-316.996c19.08-58.15 33.92.004 53-6.057s33.92-85.14 53-27.615c19.08 57.525 33.92 268.511 53 347.197 19.08 78.685 33.92 137.19 53 89.944 19.08-47.246 33.92-343.48 53-352.422 19.08-8.942 33.92 247.74 53 302.742 19.08 55.003 33.92-.834 53 2.828 19.08 3.663 33.92 23.673 53 17.52 19.08-6.154 33.92 12.333 53-51.707 19.08-64.039 33.92-263.4 53-304.068 19.08-40.667 33.92 1.65 53 78.138s33.92 325.818 53 346.793c19.08 20.974 33.92-154.792 53-230.27 19.08-75.48 33.92-206.231 53-189.056 19.08 17.174 33.92 233.968 53 284.47 19.08 50.501 33.92 66.387 53-3.904 19.08-70.292 33.92-419.117 53-386.606 19.08 32.512 33.92 498.873 53 567.227 19.08 68.354 33.92-153.646 53-187.482 19.08-33.835 33.92 3.062 53-.493 19.08-3.555 33.92-55.863 53-19.257 19.08 36.606 33.92 213.227 53 222.624 19.08 9.396 33.92-180.803 53-170.421 19.08 10.381 33.92 289.246 53 228.096 19.08-61.15 33.92-568.518 53-567.82 19.08.697 33.92 531.44 53 571.693 19.08 40.254 33.92-309.87 53-348.061 19.08-38.192 33.92 175.63 53 135.884 19.08-39.746 33.92-367.601 53-356.697 19.08 10.905 33.92 331.631 53 417.279 19.08 85.647 33.92 95.144 53 58.541 19.08-36.603 33.92-230.599 53-261.89 19.08-31.292 33.92 78.679 53 88.048s43.46-29.519 53-35.998" fill="none" stroke="#4569f7" stroke-width="6"/><g fill="#4569f7"><circle cy="529.795" r="12"/><circle cx="53" cy="408.665" r="12"/><circle cx="106" cy="723.778" r="12"/><circle cx="159" cy="500.939" r="12"/><circle cx="212" cy="183.943" r="12"/><circle cx="265" cy="177.886" r="12"/><circle cx="318" cy="150.271" r="12"/><circle cx="371" cy="497.468" r="12"/><circle cx="424" cy="587.412" r="12"/><circle cx="477" cy="234.99" r="12"/><circle cx="530" cy="537.732" r="12"/><circle cx="583" cy="540.56" r="12"/><circle cx="636" cy="558.08" r="12"/><circle cx="689" cy="506.373" r="12"/><circle cx="742" cy="202.305" r="12"/><circle cx="795" cy="280.443" r="12"/><circle cx="848" cy="627.236" r="12"/><circle cx="901" cy="396.965" r="12"/><circle cx="954" cy="207.91" r="12"/><circle cx="1007" cy="492.38" r="12"/><circle cx="1060" cy="488.476" r="12"/><circle cx="1113" cy="101.87" r="12"/><circle cx="1166" cy="669.097" r="12"/><circle cx="1219" cy="481.615" r="12"/><circle cx="1272" cy="481.122" r="12"/><circle cx="1325" cy="461.865" r="12"/><circle cx="1378" cy="684.489" r="12"/><circle cx="1431" cy="514.068" r="12"/><circle cx="1484" cy="742.164" r="12"/><circle cx="1537" cy="174.343" r="12"/><circle cx="1590" cy="746.037" r="12"/><circle cx="1643" cy="397.976" r="12"/><circle cx="1696" cy="533.86" r="12"/><circle cx="1749" cy="177.163" r="12"/><circle cx="1802" cy="594.442" r="12"/><circle cx="1855" cy="652.983" r="12"/><circle cx="1908" cy="391.093" r="12"/><circle cx="1961" cy="479.141" r="12"/><circle cx="2014" cy="443.143" r="12"/></g></svg>