<svg height="auto" viewBox="0 0 2000 1000" xmlns="http://www.w3.org/2000/svg"><path d="M0 998.017c4.32-1.78 15.36-6.918 24-9.883 8.64-2.965 15.36-4.781 24-6.59 8.64-1.808 15.36-1.92 24-3.456 8.64-1.535 15.36-.95 24-5.074s15.36-13.032 24-17.84c8.64-4.807 15.36-2.887 24-8.87 8.64-5.981 15.36-19.725 24-24.363 8.64-4.638 15.36-4.227 24-1.403 8.64 2.824 15.36 20.759 24 17.093 8.64-3.666 15.36-35.903 24-37.459 8.64-1.555 15.36 27.473 24 28.819s15.36-18.465 24-21.34 15.36 9.634 24 5.37c8.64-4.265 15.36-28.01 24-29.062 8.64-1.053 15.36 24.318 24 23.213 8.64-1.104 15.36-22.437 24-29.348 8.64-6.911 15.36 5.305 24-9.047s15.36-55.958 24-70.686c8.64-14.729 15.36-11.492 24-11.138 8.64.354 15.36 20.114 24 13.105 8.64-7.008 15.36-58.248 24-52.041 8.64 6.207 15.36 75.455 24 86.525 8.64 11.07 15.36-9.677 24-25.027 8.64-15.35 15.36-64.007 24-60.252 8.64 3.755 15.36 79.384 24 81.112 8.64 1.729 15.36-65.85 24-71.509 8.64-5.659 15.36 31.313 24 40.068 8.64 8.755 15.36 23.198 24 8.57 8.64-14.627 15.36-89.022 24-89.835 8.64-.813 15.36 95.105 24 85.319 8.64-9.787 15.36-119.687 24-139.687 8.64-20 15.36 31.559 24 28.573 8.64-2.985 15.36-50.445 24-45.16 8.64 5.287 15.36 66.216 24 74.53 8.64 8.312 15.36-23.429 24-28.345 8.64-4.917 15.36 9.788 24 1.031s15.36-34.988 24-49.682c8.64-14.693 15.36-33.847 24-31.95 8.64 1.897 15.36 33.224 24 42.49 8.64 9.267 15.36 16.867 24 8.992 8.64-7.874 15.36-60.05 24-52.74 8.64 7.31 15.36 111.626 24 93.35 8.64-18.277 15.36-168.676 24-194.886 8.64-26.209 15.36 21.5 24 49.279 8.64 27.779 15.36 91.53 24 105.05 8.64 13.52 15.36-20.124 24-29.939 8.64-9.815 15.36-20.528 24-24.588 8.64-4.06 15.36 18.915 24 2.03 8.64-16.886 15.36-76.805 24-95.839 8.64-19.033 15.36 7.652 24-9.904 8.64-17.555 15.36-80.704 24-87.626 8.64-6.922 15.36 43.765 24 49.172 8.64 5.407 15.36-30.365 24-19.133 8.64 11.233 15.36 74.716 24 81.535 8.64 6.82 15.36-10.668 24-43.652 8.64-32.983 15.36-133.607 24-139.59 8.64-5.983 15.36 88.823 24 106.35 8.64 17.53 15.36-36.546 24-8.97s15.36 146.829 24 162.171c8.64 15.343 15.36-19.08 24-76.934s15.36-224.65 24-244.478c8.64-19.827 15.36 138.776 24 134.323 8.64-4.453 15.36-155.435 24-159.06 8.64-3.624 15.36 107.37 24 138.925 8.64 31.555 15.36 3.097 24 36.378s15.36 135.518 24 148.517c8.64 12.999 15.36-61.156 24-76.301 8.64-15.145 15.36 45.452 24-7.84 8.64-53.29 15.36-253.357 24-288.22 8.64-34.864 15.36 93.1 24 94.537 8.64 1.437 15.36-93.6 24-86.554 8.64 7.046 15.36 112.916 24 125.694 8.64 12.78 15.36-66.501 24-54.7 8.64 11.8 15.36 88.049 24 120.259 8.64 32.21 15.36 55.26 24 58.685 8.64 3.425 15.36 8.15 24-39.659 8.64-47.808 15.36-191.84 24-225.944 8.64-34.105 15.36 12.672 24 36.477 8.64 23.805 15.36 122.206 24 95.773 8.64-26.432 15.36-267.956 24-242.619 8.64 25.338 15.36 370.309 24 383.382 8.64 13.072 15.36-298.25 24-310.755 8.64-12.505 19.68 197.853 24 241.285l8 592.979H0Z" fill="#f745f71a"/><path d="M0 998.017c4.32-1.78 15.36-6.918 24-9.883 8.64-2.965 15.36-4.781 24-6.59 8.64-1.808 15.36-1.92 24-3.456 8.64-1.535 15.36-.95 24-5.074s15.36-13.032 24-17.84c8.64-4.807 15.36-2.887 24-8.87 8.64-5.981 15.36-19.725 24-24.363 8.64-4.638 15.36-4.227 24-1.403 8.64 2.824 15.36 20.759 24 17.093 8.64-3.666 15.36-35.903 24-37.459 8.64-1.555 15.36 27.473 24 28.819s15.36-18.465 24-21.34 15.36 9.634 24 5.37c8.64-4.265 15.36-28.01 24-29.062 8.64-1.053 15.36 24.318 24 23.213 8.64-1.104 15.36-22.437 24-29.348 8.64-6.911 15.36 5.305 24-9.047s15.36-55.958 24-70.686c8.64-14.729 15.36-11.492 24-11.138 8.64.354 15.36 20.114 24 13.105 8.64-7.008 15.36-58.248 24-52.041 8.64 6.207 15.36 75.455 24 86.525 8.64 11.07 15.36-9.677 24-25.027 8.64-15.35 15.36-64.007 24-60.252 8.64 3.755 15.36 79.384 24 81.112 8.64 1.729 15.36-65.85 24-71.509 8.64-5.659 15.36 31.313 24 40.068 8.64 8.755 15.36 23.198 24 8.57 8.64-14.627 15.36-89.022 24-89.835 8.64-.813 15.36 95.105 24 85.319 8.64-9.787 15.36-119.687 24-139.687 8.64-20 15.36 31.559 24 28.573 8.64-2.985 15.36-50.445 24-45.16 8.64 5.287 15.36 66.216 24 74.53 8.64 8.312 15.36-23.429 24-28.345 8.64-4.917 15.36 9.788 24 1.031s15.36-34.988 24-49.682c8.64-14.693 15.36-33.847 24-31.95 8.64 1.897 15.36 33.224 24 42.49 8.64 9.267 15.36 16.867 24 8.992 8.64-7.874 15.36-60.05 24-52.74 8.64 7.31 15.36 111.626 24 93.35 8.64-18.277 15.36-168.676 24-194.886 8.64-26.209 15.36 21.5 24 49.279 8.64 27.779 15.36 91.53 24 105.05 8.64 13.52 15.36-20.124 24-29.939 8.64-9.815 15.36-20.528 24-24.588 8.64-4.06 15.36 18.915 24 2.03 8.64-16.886 15.36-76.805 24-95.839 8.64-19.033 15.36 7.652 24-9.904 8.64-17.555 15.36-80.704 24-87.626 8.64-6.922 15.36 43.765 24 49.172 8.64 5.407 15.36-30.365 24-19.133 8.64 11.233 15.36 74.716 24 81.535 8.64 6.82 15.36-10.668 24-43.652 8.64-32.983 15.36-133.607 24-139.59 8.64-5.983 15.36 88.823 24 106.35 8.64 17.53 15.36-36.546 24-8.97s15.36 146.829 24 162.171c8.64 15.343 15.36-19.08 24-76.934s15.36-224.65 24-244.478c8.64-19.827 15.36 138.776 24 134.323 8.64-4.453 15.36-155.435 24-159.06 8.64-3.624 15.36 107.37 24 138.925 8.64 31.555 15.36 3.097 24 36.378s15.36 135.518 24 148.517c8.64 12.999 15.36-61.156 24-76.301 8.64-15.145 15.36 45.452 24-7.84 8.64-53.29 15.36-253.357 24-288.22 8.64-34.864 15.36 93.1 24 94.537 8.64 1.437 15.36-93.6 24-86.554 8.64 7.046 15.36 112.916 24 125.694 8.64 12.78 15.36-66.501 24-54.7 8.64 11.8 15.36 88.049 24 120.259 8.64 32.21 15.36 55.26 24 58.685 8.64 3.425 15.36 8.15 24-39.659 8.64-47.808 15.36-191.84 24-225.944 8.64-34.105 15.36 12.672 24 36.477 8.64 23.805 15.36 122.206 24 95.773 8.64-26.432 15.36-267.956 24-242.619 8.64 25.338 15.36 370.309 24 383.382 8.64 13.072 15.36-298.25 24-310.755 8.64-12.505 19.68 197.853 24 241.285" fill="none" stroke="#f745f7" stroke-width="6"/></svg>