<svg height="auto" viewBox="0 0 2000 1000" xmlns="http://www.w3.org/2000/svg"><path d="M0 1000h41.026M51.282 1000h41.026v-4.272q0-20-20-20h-1.026q-20 0-20 20ZM102.564 1000h41.026v-24.955q0-20-20-20h-1.026q-20 0-20 20ZM153.846 1000h41.026v-50.022q0-20-20-20h-1.026q-20 0-20 20ZM205.128 1000h41.026v-66.087q0-20-20-20h-1.026q-20 0-20 20ZM256.41 1000h41.026v-87.598q0-20-20-20h-1.026q-20 0-20 20ZM307.692 1000h41.026V885.438q0-20-20-20h-1.026q-20 0-20 20ZM358.974 1000H400V864.302q0-20-20-20h-1.026q-20 0-20 20ZM410.256 1000h41.026V892.405q0-20-20-20h-1.026q-20 0-20 20ZM461.538 1000h41.026V871.966q0-20-20-20h-1.026q-20 0-20 20ZM512.82 1000h41.026V825.212q0-20-20-20h-1.025q-20 0-20 20ZM564.103 1000h41.025V820.054q0-20-20-20h-1.025q-20 0-20 20ZM615.385 1000h41.025V714.327q0-20-20-20h-1.025q-20 0-20 20ZM666.667 1000h41.025V816.94q0-20-20-20h-1.025q-20 0-20 20ZM717.949 1000h41.025V710.18q0-20-20-20h-1.025q-20 0-20 20ZM769.23 1000h41.026V640.583q0-20-20-20h-1.025q-20 0-20 20ZM820.513 1000h41.025V741.347q0-20-20-20h-1.025q-20 0-20 20ZM871.795 1000h41.026V798.222q0-20-20-20h-1.026q-20 0-20 20ZM923.077 1000h41.026V776.578q0-20-20-20h-1.026q-20 0-20 20ZM974.359 1000h41.026V640.473q0-20-20-20h-1.026q-20 0-20 20ZM1025.641 1000h41.026V699.296q0-20-20-20h-1.026q-20 0-20 20ZM1076.923 1000h41.026V565.532q0-20-20-20h-1.026q-20 0-20 20ZM1128.205 1000h41.026V526.346q0-20-20-20h-1.026q-20 0-20 20ZM1179.487 1000h41.026V617.111q0-20-20-20h-1.026q-20 0-20 20ZM1230.77 1000h41.025V456.159q0-20-20-20h-1.026q-20 0-20 20ZM1282.051 1000h41.026V572.88q0-20-20-20h-1.026q-20 0-20 20ZM1333.333 1000h41.026V634.816q0-20-20-20h-1.026q-20 0-20 20ZM1384.615 1000h41.026V587.125q0-20-20-20h-1.026q-20 0-20 20ZM1435.897 1000h41.026V480.493q0-20-20-20h-1.026q-20 0-20 20ZM1487.18 1000h41.025V487.312q0-20-20-20h-1.026q-20 0-20 20ZM1538.462 1000h41.025V293.126q0-20-20-20h-1.025q-20 0-20 20ZM1589.744 1000h41.025V264.302q0-20-20-20h-1.025q-20 0-20 20ZM1641.026 1000h41.025V595.31q0-20-20-20h-1.025q-20 0-20 20ZM1692.308 1000h41.025V383.913q0-20-20-20h-1.025q-20 0-20 20ZM1743.59 1000h41.025V359.817q0-20-20-20h-1.025q-20 0-20 20ZM1794.872 1000h41.025V336.267q0-20-20-20h-1.025q-20 0-20 20ZM1846.154 1000h41.025V155.297q0-20-20-20h-1.025q-20 0-20 20ZM1897.436 1000h41.026V296.954q0-20-20-20h-1.026q-20 0-20 20ZM1948.718 1000h41.026V310.273q0-20-20-20h-1.026q-20 0-20 20Z" fill="#4569f7"/></svg>